<svg width="67" height="66" viewBox="0 0 67 66" fill="none" xmlns="http://www.w3.org/2000/svg">
<path d="M33.5 64.9033C52.0015 64.9033 67 50.3742 67 32.4517C67 14.5291 52.0015 0 33.5 0C14.9985 0 0 14.5291 0 32.4517C0 50.3742 14.9985 64.9033 33.5 64.9033Z" fill="#FDE6A0"/>
<path d="M63.0423 22.217C51.508 19.0624 39.648 21.4029 27.9062 21.0137C22.4331 20.8305 16.9312 20.0546 11.8626 17.9736C9.43075 16.9763 7.19321 15.6916 5.14476 14.1754C2.71552 17.9074 1.0505 22.1534 0.362427 26.7072C2.3531 27.7579 4.5171 28.5542 6.74413 29.1114C12.7319 30.6098 19.195 30.6759 25.2668 29.6049C32.4233 28.3431 39.4142 26.9845 46.7361 27.2542C53.4986 27.501 60.1929 28.9765 66.2043 32.0395C66.4669 32.1718 66.7243 32.3143 66.9816 32.4542C66.9921 32.1235 67 31.7902 67 31.457C67 28.5771 66.6113 25.7889 65.8839 23.1303C64.9542 22.7894 64.0088 22.4816 63.0423 22.217Z" fill="#FBD382"/>
<path d="M26.2412 18.2916C25.8866 18.3094 25.5347 18.3221 25.1802 18.3297C25.5872 18.3603 25.9969 18.3831 26.404 18.406C26.3436 18.373 26.2911 18.3348 26.2412 18.2916Z" fill="#BCE4FA"/>
<path d="M0 36C1.67815 52.3836 15.9385 65.1877 33.2951 65.208C50.6518 65.2284 64.941 52.4548 66.6586 36.0738L0 36Z" fill="#40916C"/>
<path d="M53.412 58.5713C48.7715 56.0501 44.152 53.2135 40.3545 49.5679C36.8931 46.2429 33.8467 41.7145 35.2333 36.7918C35.3253 36.4636 35.4356 36.1431 35.5564 35.8302L27.3206 35.82C24.2847 39.2417 22.7299 43.9024 22.4909 48.4104C22.1811 54.2541 24.2794 59.6728 27.528 64.4556C29.5003 64.8092 31.5304 64.995 33.6077 64.9975C41.0767 65.0051 47.9784 62.6443 53.5538 58.6451C53.5065 58.6222 53.4593 58.5967 53.412 58.5713Z" fill="#2F3E46"/>
<path d="M30.8502 38.57L29.8154 38.392C30.0308 37.2141 30.2251 36.5119 30.233 36.4814L31.2467 36.746C31.2441 36.7561 31.055 37.4405 30.8502 38.57Z" fill="#FFF8F8"/>
<path d="M35.7926 60.3826C34.8367 59.6168 33.97 58.7417 33.2189 57.7826L34.0567 57.1669C34.7579 58.0624 35.5668 58.8816 36.4623 59.5964L35.7926 60.3826ZM31.8717 55.7702C31.2966 54.7552 30.8081 53.646 30.4194 52.4706L31.42 52.1602C31.7877 53.272 32.2472 54.3201 32.7909 55.2792L31.8717 55.7702ZM29.8022 50.1632C29.5659 49.0438 29.4031 47.8557 29.319 46.6346L30.3669 46.5659C30.4483 47.7438 30.6032 48.8861 30.8317 49.9597L29.8022 50.1632ZM30.3012 44.2763L29.2507 44.2661C29.2612 43.1111 29.3348 41.9205 29.4713 40.7299L30.5166 40.8419C30.3826 41.9994 30.3117 43.1544 30.3012 44.2763Z" fill="#FFF8F8"/>
<path d="M39.6138 62.6925C38.9914 62.4152 38.39 62.1074 37.8201 61.7741L38.3637 60.9016C38.8994 61.2145 39.4667 61.5045 40.0523 61.7665L39.6138 62.6925Z" fill="#FFF8F8"/>
<path d="M3.94462 43.6479C3.90523 43.6861 3.86583 43.7243 3.82907 43.7599C3.67937 43.9049 3.67937 44.1542 3.82907 44.2992C3.98139 44.4468 4.23613 44.4442 4.38582 44.2992C4.42522 44.2611 4.46461 44.2229 4.50138 44.1873C4.65107 44.0423 4.65107 43.793 4.50138 43.6479C4.35168 43.5029 4.09694 43.5029 3.94462 43.6479Z" fill="white"/>
<path d="M5.84865 48.7003C6.35551 48.7003 6.35551 47.9371 5.84865 47.9371C5.34179 47.9371 5.34179 48.7003 5.84865 48.7003Z" fill="white"/>
<path d="M8.80827 45.7976C8.76888 45.7594 8.72949 45.7213 8.69272 45.6857C8.54303 45.5407 8.28566 45.5407 8.13596 45.6857C7.98364 45.8332 7.98627 46.08 8.13596 46.225C8.17536 46.2632 8.21475 46.3013 8.25152 46.3369C8.40121 46.4819 8.65858 46.4819 8.80827 46.3369C8.96059 46.1894 8.95797 45.9426 8.80827 45.7976Z" fill="white"/>
<path d="M9.99015 52.4528C9.95076 52.491 9.91137 52.5291 9.8746 52.5647C9.72491 52.7098 9.72491 52.9591 9.8746 53.1041C10.0269 53.2516 10.2817 53.2491 10.4314 53.1041C10.4708 53.0659 10.5101 53.0278 10.5469 52.9921C10.6966 52.8471 10.6966 52.5978 10.5469 52.4528C10.3972 52.3078 10.1425 52.3078 9.99015 52.4528Z" fill="white"/>
<path d="M13.8769 53.2491C13.8376 53.2491 13.7982 53.2491 13.7614 53.2491C13.5566 53.2491 13.357 53.4246 13.3675 53.6307C13.378 53.8368 13.5408 54.0123 13.7614 54.0123C13.8008 54.0123 13.8402 54.0123 13.8769 54.0123C14.0818 54.0123 14.2814 53.8368 14.2709 53.6307C14.263 53.4221 14.0976 53.2491 13.8769 53.2491Z" fill="white"/>
<path d="M9.22328 49.9469C9.73014 49.9469 9.73014 49.1837 9.22328 49.1837C8.71642 49.1837 8.71642 49.9469 9.22328 49.9469Z" fill="white"/>
<path d="M16.4322 58.7773C16.3929 58.7773 16.3535 58.7773 16.3167 58.7773C16.1118 58.7773 15.9123 58.9528 15.9228 59.1589C15.9333 59.365 16.0961 59.5405 16.3167 59.5405C16.3561 59.5405 16.3955 59.5405 16.4322 59.5405C16.6371 59.5405 16.8367 59.365 16.8262 59.1589C16.8183 58.9528 16.6529 58.7798 16.4322 58.7773Z" fill="white"/>
<path d="M20.1641 56.2739C20.671 56.2739 20.671 55.5107 20.1641 55.5107C19.6546 55.5107 19.6546 56.2739 20.1641 56.2739Z" fill="white"/>
<path d="M20.8574 59.3471C20.8338 59.3471 20.8102 59.3471 20.7865 59.3471C20.2797 59.3471 20.2797 60.1103 20.7865 60.1103C20.8102 60.1103 20.8338 60.1103 20.8574 60.1103C21.3643 60.1103 21.3643 59.3471 20.8574 59.3471C20.8338 59.3471 20.8102 59.3471 20.7865 59.3471C20.2797 59.3471 20.2797 60.1103 20.7865 60.1103C20.8102 60.1103 20.8338 60.1103 20.8574 60.1103C21.3643 60.1103 21.3643 59.3471 20.8574 59.3471Z" fill="white"/>
<path d="M24.2321 61.9446C24.1927 61.9446 24.1533 61.9446 24.1165 61.9446C23.9117 61.9446 23.7121 62.1202 23.7226 62.3262C23.7331 62.5323 23.8959 62.7079 24.1165 62.7079C24.1559 62.7079 24.1953 62.7079 24.2321 62.7079C24.4369 62.7079 24.6365 62.5323 24.626 62.3262C24.6155 62.1202 24.4527 61.9446 24.2321 61.9446Z" fill="white"/>
<path d="M17.1334 58.6399C17.6403 58.6399 17.6403 57.8766 17.1334 57.8766C16.6266 57.8766 16.624 58.6399 17.1334 58.6399Z" fill="white"/>
<path d="M12.317 56.5614C12.317 56.5996 12.317 56.6378 12.317 56.6734C12.317 56.8718 12.4982 57.0652 12.7109 57.055C12.9237 57.0448 13.1049 56.8871 13.1049 56.6734C13.1049 56.6352 13.1049 56.597 13.1049 56.5614C13.1049 56.363 12.9237 56.1697 12.7109 56.1798C12.4956 56.19 12.317 56.3477 12.317 56.5614Z" fill="white"/>
<path d="M5.96939 45.7696C6.47625 45.7696 6.47625 45.0064 5.96939 45.0064C5.46253 45.0064 5.4599 45.7696 5.96939 45.7696Z" fill="white"/>
<path d="M4.69301 40.0405C4.61422 40.0405 4.53806 40.0405 4.45927 40.0405C4.25443 40.0405 4.05483 40.2161 4.06534 40.4221C4.07584 40.6282 4.23867 40.8037 4.45927 40.8037C4.53806 40.8037 4.61422 40.8037 4.69301 40.8037C4.89785 40.8037 5.09744 40.6282 5.08694 40.4221C5.07906 40.2161 4.91361 40.0405 4.69301 40.0405Z" fill="white"/>
<path d="M1.78321 39.6995C1.70443 39.6995 1.62827 39.6995 1.54948 39.6995C1.34464 39.6995 1.14504 39.8751 1.15555 40.0811C1.16605 40.2872 1.32888 40.4627 1.54948 40.4627C1.62827 40.4627 1.70443 40.4627 1.78321 40.4627C1.98806 40.4627 2.18765 40.2872 2.17715 40.0811C2.16664 39.8751 2.00382 39.6995 1.78321 39.6995Z" fill="white"/>
<path d="M53.0443 55.9279C53.0443 55.8898 53.0443 55.8516 53.0443 55.816C53.0443 55.6176 52.8631 55.4242 52.6504 55.4344C52.4377 55.4446 52.2565 55.6023 52.2565 55.816C52.2565 55.8542 52.2565 55.8923 52.2565 55.9279C52.2565 56.1264 52.4377 56.3197 52.6504 56.3095C52.8631 56.3019 53.0443 56.1416 53.0443 55.9279Z" fill="white"/>
<path d="M55.7992 51.1503C55.7598 51.1503 55.7204 51.1503 55.6836 51.1503C55.4788 51.1503 55.2792 51.3258 55.2897 51.5319C55.3002 51.7379 55.463 51.9135 55.6836 51.9135C55.723 51.9135 55.7624 51.9135 55.7992 51.9135C56.004 51.9135 56.2036 51.7379 56.1931 51.5319C56.1826 51.3258 56.0198 51.1528 55.7992 51.1503Z" fill="white"/>
<path d="M55.7965 54.3965C56.3034 54.3965 56.3034 53.6333 55.7965 53.6333C55.2897 53.6333 55.2897 54.3965 55.7965 54.3965Z" fill="white"/>
<path d="M59.2947 49.2372C59.2553 49.2372 59.2159 49.2372 59.1791 49.2372C58.9743 49.2372 58.7747 49.4127 58.7852 49.6188C58.7957 49.8249 58.9585 50.0004 59.1791 50.0004C59.2185 50.0004 59.2579 50.0004 59.2947 50.0004C59.4995 50.0004 59.6991 49.8249 59.6886 49.6188C59.6807 49.4127 59.5153 49.2372 59.2947 49.2372Z" fill="white"/>
<path d="M60.2323 43.3732C60.1929 43.3732 60.1535 43.3732 60.1167 43.3732C59.9119 43.3732 59.7123 43.5487 59.7228 43.7548C59.7333 43.9608 59.8961 44.1364 60.1167 44.1364C60.1561 44.1364 60.1955 44.1364 60.2323 44.1364C60.4371 44.1364 60.6367 43.9608 60.6262 43.7548C60.6184 43.5487 60.4555 43.3732 60.2323 43.3732Z" fill="white"/>
<path d="M62.7455 45.8561C62.7061 45.8943 62.6667 45.9325 62.63 45.9681C62.4803 46.1131 62.4803 46.3624 62.63 46.5074C62.7823 46.655 63.037 46.6524 63.1867 46.5074C63.2261 46.4692 63.2655 46.4311 63.3023 46.3955C63.452 46.2505 63.452 46.0011 63.3023 45.8561C63.1526 45.7111 62.8978 45.7111 62.7455 45.8561Z" fill="white"/>
<path d="M58.948 47.8584C59.4549 47.8584 59.4549 47.0952 58.948 47.0952C58.4412 47.0952 58.4412 47.8584 58.948 47.8584Z" fill="white"/>
<path d="M63.0319 40.5569C62.9925 40.5569 62.9531 40.5569 62.9163 40.5569C62.7115 40.5569 62.5119 40.7325 62.5224 40.9386C62.5329 41.1446 62.6957 41.3202 62.9163 41.3202C62.9557 41.3202 62.9951 41.3202 63.0319 41.3202C63.2367 41.3202 63.4363 41.1446 63.4258 40.9386C63.4153 40.7299 63.2525 40.5569 63.0319 40.5569Z" fill="white"/>
<path d="M65.2483 38.5013C65.7552 38.5013 65.7552 37.7381 65.2483 37.7381C64.7415 37.7381 64.7388 38.5013 65.2483 38.5013Z" fill="white"/>
<path d="M55.2897 48.7817C55.2503 48.8199 55.2109 48.8581 55.1742 48.8937C55.0245 49.0387 55.0245 49.288 55.1742 49.433C55.3265 49.5806 55.5812 49.578 55.7309 49.433C55.7703 49.3949 55.8097 49.3567 55.8465 49.3211C55.9962 49.1761 55.9962 48.9268 55.8465 48.7817C55.6968 48.6342 55.442 48.6342 55.2897 48.7817Z" fill="white"/>
<path d="M45.3915 50.845C45.3915 50.8832 45.3915 50.9213 45.3915 50.9569C45.3915 51.1554 45.5727 51.3487 45.7854 51.3385C45.9981 51.3284 46.1793 51.1706 46.1793 50.9569C46.1793 50.9188 46.1793 50.8806 46.1793 50.845C46.1793 50.6466 45.9981 50.4532 45.7854 50.4634C45.5727 50.4736 45.3915 50.6313 45.3915 50.845Z" fill="white"/>
<path d="M47.5292 53.5976C47.5686 53.5976 47.608 53.5976 47.6448 53.5976C47.8496 53.5976 48.0492 53.4221 48.0387 53.216C48.0282 53.01 47.8654 52.8344 47.6448 52.8344C47.6054 52.8344 47.566 52.8344 47.5292 52.8344C47.3244 52.8344 47.1248 53.01 47.1353 53.216C47.1458 53.4221 47.3086 53.5976 47.5292 53.5976Z" fill="white"/>
<path d="M28.5917 15.6229C28.1793 15.7526 27.7723 15.9002 27.3678 16.0554C25.3115 16.8516 23.9485 18.4849 22.3334 19.9528C20.7183 21.4207 19.3999 24.4074 18.2995 26.6512C17.9975 24.3031 18.0028 20.1462 18.008 17.7802C18.008 17.4622 18.0028 15.5745 18.0605 13.8929C17.8242 13.8268 17.6193 13.6792 17.5169 13.4401C17.3856 13.3918 17.2674 13.3205 17.1676 13.2289C17.3961 13.435 17.1151 15.6941 17.0993 16.0503C17.0205 17.6327 16.4296 19.2863 16.6634 20.8559C16.9102 22.5147 16.9444 24.1403 16.8892 25.8346C16.7632 29.6481 16.2852 33.454 15.4553 37.1835C16.3246 37.4837 17.2622 37.6008 18.1813 37.5219C18.465 37.4965 18.7801 37.4354 18.9456 37.2115C19.0559 37.064 19.0769 36.8732 19.0953 36.69C19.2765 34.8964 19.4787 33.1004 19.5365 31.3094C19.5916 29.6074 19.4892 27.2516 20.2954 25.6921C20.8706 24.0512 21.9815 22.8148 23.0346 21.4284C23.8408 20.3675 24.7442 19.3728 25.7763 18.5154C26.0784 18.2636 28.9698 16.1012 29.2508 16.4141C29.0223 16.1571 28.8017 15.8925 28.5917 15.6229Z" fill="#825E3A"/>
<path d="M33.6235 18.8309L33.9833 18.9861C33.8704 18.9251 33.7496 18.8742 33.6235 18.8309Z" fill="#844683"/>
<path d="M33.4448 18.7775C33.5052 18.7928 33.5656 18.8106 33.6234 18.8335L33.4711 18.7673C33.4632 18.7699 33.4553 18.7724 33.4448 18.7775Z" fill="#844683"/>
<path d="M32.8723 18.5155C32.9301 18.5104 32.9826 18.4977 33.0352 18.4798C32.9459 18.4569 32.8566 18.4366 32.7647 18.4239C32.8198 18.4315 32.875 18.4264 32.9275 18.4162L33.0562 18.4722C33.4212 18.3323 33.6471 17.9023 33.5972 17.5106C33.5368 17.0577 33.1927 16.6838 32.7988 16.4344C32.5073 16.2513 32.1711 16.1164 31.8219 16.1266C31.512 16.1368 31.1968 16.2843 31.0314 16.5337C31.0077 16.5413 30.9815 16.5464 30.9578 16.554C30.7766 15.9587 30.2146 15.4855 29.5791 15.4067C29.0065 15.3354 28.4078 15.5873 28.0532 16.0274C27.7355 15.5898 27.1708 15.3227 26.6167 15.371C25.9969 15.4245 25.4323 15.8697 25.2511 16.4472C24.7179 15.8722 23.7856 15.6865 23.0608 16.0096C22.1626 16.409 21.4588 17.8337 22.3202 18.5841C21.7293 18.7088 21.2776 19.2812 21.3065 19.8663C21.3354 20.4515 21.8449 20.9781 22.4436 21.0442C20.8443 21.693 22.5172 23.3975 23.6701 23.2957C23.9642 23.2703 24.2662 23.171 24.4658 22.9599C24.5341 22.8886 24.5866 22.8047 24.6208 22.7131C24.6392 22.8429 24.668 22.9726 24.7048 23.0998C24.8125 23.4534 25.0016 23.7994 25.3115 24.0131C25.687 24.2726 26.1886 24.3031 26.6456 24.2319C27.0001 24.1759 27.3599 24.0564 27.6015 23.7994C27.6514 23.746 27.6961 23.6875 27.7328 23.6213C27.8353 23.4407 27.8746 23.2245 27.8221 23.0311C28.0926 23.4967 28.7072 23.7638 29.2429 23.6213C29.8496 23.4585 30.2619 22.7971 30.1253 22.2018C30.4273 22.5681 30.992 22.5885 31.4726 22.5172C31.8849 22.4587 32.3103 22.3468 32.615 22.0695C32.875 21.8303 32.7936 21.5759 32.9327 21.3215C33.0877 21.0366 33.24 21.2045 33.5867 21.0773C33.8755 20.9704 34.1093 20.7339 34.2117 20.4515C34.5689 19.4568 33.8545 18.6808 32.8723 18.5155Z" fill="#1B4332"/>
<path d="M27.9246 22.4917C27.9824 22.4866 28.0349 22.4739 28.0874 22.4561C27.9981 22.4332 27.9088 22.4129 27.8169 22.4001C27.8721 22.4078 27.9272 22.4027 27.9797 22.3925L28.1084 22.4485C28.4735 22.3085 28.6993 21.8786 28.6494 21.4868C28.589 21.034 28.245 20.66 27.851 20.4107C27.5595 20.2275 27.2234 20.0927 26.8741 20.1029C26.5642 20.1131 26.2491 20.2606 26.0836 20.5099C26.06 20.5176 26.0337 20.5226 26.0101 20.5303C25.8289 19.935 25.2669 19.4618 24.6313 19.3829C24.0588 19.3117 23.46 19.5635 23.1055 20.0037C22.7877 19.5661 22.2231 19.299 21.6689 19.3473C21.0492 19.4007 20.4845 19.8459 20.3033 20.4234C19.7702 19.8485 18.8379 19.6628 18.113 19.9859C17.2149 20.3853 16.5111 21.8099 17.3725 22.5604C16.7816 22.6851 16.3298 23.2575 16.3587 23.8426C16.3876 24.4277 16.8971 24.9543 17.4959 25.0205C15.8965 25.6692 17.5694 27.3737 18.7223 27.272C19.0165 27.2465 19.3185 27.1473 19.5181 26.9361C19.5864 26.8649 19.6389 26.781 19.673 26.6894C19.6914 26.8191 19.7203 26.9489 19.7571 27.0761C19.8647 27.4297 20.0538 27.7757 20.3637 27.9894C20.7393 28.2489 21.2409 28.2794 21.6978 28.2082C22.0524 28.1522 22.4122 28.0326 22.6538 27.7757C22.7037 27.7222 22.7483 27.6637 22.7851 27.5976C22.8875 27.417 22.9269 27.2007 22.8744 27.0074C23.1449 27.4729 23.7594 27.7401 24.2952 27.5976C24.9018 27.4348 25.3141 26.7733 25.1776 26.178C25.4796 26.5444 26.0442 26.5647 26.5248 26.4935C26.9371 26.435 27.3626 26.323 27.6672 26.0457C27.9272 25.8066 27.8458 25.5522 27.985 25.2978C28.1399 25.0129 28.2923 25.1808 28.6389 25.0536C28.9278 24.9467 29.1615 24.7101 29.264 24.4277C29.6185 23.433 28.9042 22.6571 27.9246 22.4917Z" fill="#1B4332"/>
<path d="M22.7483 15.3965C22.8061 15.3914 22.8586 15.3787 22.9111 15.3609C22.8218 15.338 22.7326 15.3176 22.6406 15.3049C22.6958 15.3125 22.7509 15.3075 22.8035 15.2973L22.9322 15.3533C23.2972 15.2133 23.523 14.7834 23.4732 14.3916C23.4127 13.9388 23.0687 13.5648 22.6748 13.3155C22.3833 13.1323 22.0471 12.9975 21.6978 13.0077C21.3879 13.0178 21.0728 13.1654 20.9073 13.4147C20.8837 13.4223 20.8574 13.4274 20.8338 13.4351C20.6526 12.8398 20.0906 12.3666 19.455 12.2877C18.8825 12.2165 18.2837 12.4683 17.9292 12.9084C17.6114 12.4709 17.0468 12.2037 16.4927 12.2521C15.8729 12.3055 15.3082 12.7507 15.127 13.3282C14.5939 12.7533 13.6616 12.5675 12.9368 12.8906C12.0386 13.29 11.3348 14.7147 12.1962 15.4652C11.6053 15.5899 11.1536 16.1623 11.1825 16.7474C11.2114 17.3325 11.7208 17.8591 12.3196 17.9253C10.7202 18.574 12.3931 20.2785 13.5461 20.1767C13.8402 20.1513 14.1422 20.0521 14.3418 19.8409C14.4101 19.7697 14.4626 19.6857 14.4967 19.5942C14.5151 19.7239 14.544 19.8536 14.5808 19.9808C14.6885 20.3345 14.8775 20.6805 15.1874 20.8942C15.563 21.1536 16.0646 21.1842 16.5216 21.1129C16.8761 21.057 17.2359 20.9374 17.4775 20.6805C17.5274 20.627 17.572 20.5685 17.6088 20.5024C17.7112 20.3217 17.7506 20.1055 17.6981 19.9122C17.9686 20.3777 18.5831 20.6448 19.1189 20.5024C19.7255 20.3396 20.1379 19.6781 20.0013 19.0828C20.3033 19.4491 20.8679 19.4695 21.3485 19.3983C21.7609 19.3398 22.1863 19.2278 22.4909 18.9505C22.7509 18.7114 22.6695 18.457 22.8087 18.2026C22.9637 17.9176 23.116 18.0855 23.4626 17.9583C23.7515 17.8515 23.9853 17.6149 24.0877 17.3325C24.4422 16.3378 23.7305 15.5619 22.7483 15.3965Z" fill="#1B4332"/>
<path d="M18.8195 12.4021C18.7617 12.397 18.7066 12.3996 18.6541 12.4098C18.7355 12.4479 18.8221 12.4835 18.9088 12.5115C18.8537 12.4937 18.8011 12.4886 18.7486 12.4912L18.6304 12.4148C18.247 12.4886 17.9424 12.8753 17.924 13.2671C17.9003 13.7225 18.1708 14.1499 18.5123 14.4628C18.7644 14.6943 19.0716 14.8851 19.4157 14.9334C19.7229 14.9767 20.0617 14.8876 20.2692 14.6689C20.2955 14.6663 20.3217 14.6638 20.3454 14.6638C20.4136 15.2794 20.8811 15.8417 21.493 16.0299C22.0445 16.1978 22.6801 16.0528 23.1081 15.6814C23.3392 16.1673 23.8487 16.526 24.4002 16.5743C25.02 16.6278 25.6582 16.2869 25.9418 15.7475C26.362 16.4039 27.2444 16.7473 28.0165 16.554C28.9725 16.3148 29.9258 15.0327 29.2167 14.1473C29.8207 14.127 30.3696 13.6411 30.4484 13.061C30.5272 12.481 30.1228 11.8755 29.545 11.7051C31.2389 11.3413 29.9048 9.37728 28.7519 9.27806C28.4577 9.25262 28.1426 9.29841 27.9062 9.47141C27.8274 9.52992 27.7592 9.60369 27.7093 9.68765C27.7145 9.55536 27.7119 9.42307 27.6961 9.29332C27.6567 8.92698 27.5333 8.55301 27.2654 8.29098C26.9424 7.97043 26.4566 7.8534 25.9917 7.84577C25.6346 7.84068 25.2564 7.89665 24.9701 8.10526C24.9097 8.14851 24.8572 8.19939 24.8099 8.2579C24.676 8.41818 24.5998 8.62424 24.6156 8.82268C24.4344 8.31896 23.8802 7.94753 23.3261 7.99841C22.6984 8.05438 22.1732 8.63442 22.1968 9.24244C21.9684 8.82777 21.4142 8.71329 20.931 8.70057C20.4688 8.68784 20.046 8.74636 19.6573 8.99567C19.5732 9.05164 18.8878 9.78941 19.2397 9.87336C18.6882 9.74107 18.1551 9.74362 17.8557 10.2626C17.3252 11.1835 17.8846 12.0689 18.8195 12.4021Z" fill="#1B4332"/>
<path d="M21.9815 25.6591C21.5193 25.8397 21.0649 26.0381 20.6159 26.2468C18.3258 27.3153 16.8998 29.2869 15.1691 31.088C13.4384 32.8918 12.17 36.4076 11.0932 39.0585C10.5575 36.3949 10.2292 31.6376 10.0427 28.9307C10.0191 28.5669 9.85889 26.407 9.78798 24.4787C9.51223 24.4201 9.26537 24.27 9.13143 24.0004C8.97911 23.9546 8.83467 23.8808 8.71386 23.7867C8.98961 24.0055 8.85305 26.6106 8.86093 27.0201C8.90032 29.0147 8.53003 30.9634 8.59306 32.9783C8.77426 38.8651 9.85889 44.6376 9.47284 50.5524C9.45708 50.7839 9.4492 51.0434 9.60678 51.219C9.73546 51.364 9.94293 51.4123 10.1373 51.4479C10.8674 51.5828 11.6132 51.6362 12.3564 51.6107C12.451 51.6056 12.4956 45.0955 12.5087 44.4951C12.556 42.2487 12.6978 39.9947 13.2966 37.8094C13.8218 35.8886 14.9958 34.3902 16.0883 32.7239C16.9234 31.4493 17.8794 30.2434 18.9902 29.1826C19.3159 28.8722 22.449 26.1781 22.7956 26.5139C22.5172 26.2366 22.2441 25.9517 21.9815 25.6591Z" fill="#926942"/>
<path d="M28.0007 28.9486L28.4262 29.0987C28.2896 29.0376 28.1452 28.9893 28.0007 28.9486Z" fill="#844683"/>
<path d="M27.7906 28.9004C27.8616 28.9159 27.9298 28.9314 28.0007 28.9495L27.8222 28.8849C27.8117 28.8901 27.8012 28.8953 27.7906 28.9004Z" fill="#844683"/>
<path d="M27.0081 28.6534C27.0737 28.6432 27.1341 28.6254 27.1919 28.6C27.0895 28.5796 26.9844 28.5618 26.8794 28.5567C26.945 28.5618 27.0054 28.5516 27.0632 28.5364L27.2155 28.5898C27.62 28.4041 27.8458 27.8927 27.7565 27.4501C27.6515 26.9362 27.226 26.5342 26.7559 26.2773C26.4093 26.089 26.0101 25.9593 25.6135 26C25.259 26.0356 24.9097 26.2264 24.7416 26.5266C24.7127 26.5368 24.6865 26.5469 24.6576 26.5546C24.4028 25.888 23.7227 25.3894 22.9873 25.3462C22.3255 25.308 21.6611 25.6413 21.2908 26.173C20.8916 25.6947 20.2245 25.4327 19.5942 25.5293C18.8878 25.6387 18.2785 26.1908 18.1183 26.865C17.4618 26.2493 16.3798 26.1068 15.5761 26.5317C14.5808 27.0583 13.8927 28.7424 14.9353 29.5336C14.2709 29.7219 13.7982 30.4113 13.8796 31.0753C13.961 31.7419 14.5834 32.3066 15.2768 32.3372C13.4988 33.2021 15.5499 35.0237 16.8604 34.8201C17.1965 34.7667 17.53 34.6319 17.7454 34.3775C17.8163 34.291 17.8688 34.1918 17.903 34.0849C17.9345 34.2325 17.9765 34.38 18.0316 34.5199C18.1813 34.9168 18.4282 35.2984 18.8011 35.5197C19.2528 35.7894 19.828 35.7869 20.3453 35.6698C20.7445 35.5783 21.149 35.4129 21.4063 35.1051C21.4589 35.0415 21.5061 34.9677 21.5403 34.8939C21.6427 34.6777 21.669 34.4284 21.5954 34.2121C21.9447 34.7235 22.6669 34.9855 23.2683 34.7794C23.9485 34.5479 24.3661 33.7593 24.1639 33.0877C24.5394 33.4845 25.1881 33.4642 25.7291 33.3471C26.1965 33.2479 26.6745 33.0902 27.0002 32.7493C27.2786 32.4567 27.1656 32.1693 27.3048 31.8691C27.4598 31.5332 27.6488 31.7113 28.0323 31.5383C28.3553 31.3933 28.6048 31.1058 28.6967 30.7751C29.0224 29.5998 28.1452 28.7679 27.0081 28.6534Z" fill="#74C69D"/>
<path d="M15.2767 25.8422C15.3424 25.8321 15.4028 25.8143 15.4606 25.7888C15.3581 25.7685 15.2531 25.7507 15.148 25.7456C15.2137 25.7507 15.2741 25.7405 15.3319 25.7252L15.4842 25.7786C15.8886 25.5929 16.1145 25.0816 16.0252 24.6389C15.9202 24.125 15.4947 23.7231 15.0246 23.4661C14.678 23.2779 14.2788 23.1481 13.8822 23.1888C13.5277 23.2244 13.1784 23.4152 13.0103 23.7154C12.9814 23.7256 12.9552 23.7358 12.9263 23.7434C12.6715 23.0769 11.9913 22.5783 11.256 22.535C10.5942 22.4968 9.92976 22.8301 9.55946 23.3618C9.16028 22.8835 8.49322 22.6215 7.86293 22.7182C7.15647 22.8276 6.54719 23.3796 6.38699 24.0538C5.73044 23.4381 4.64844 23.2957 3.84481 23.7205C2.84948 24.2471 2.16141 25.9313 3.20402 26.7225C2.53959 26.9107 2.06687 27.6002 2.14828 28.2642C2.22969 28.9307 2.85211 29.4955 3.54543 29.526C1.76748 30.391 3.81855 32.2125 5.12903 32.009C5.46519 31.9556 5.79872 31.8207 6.01407 31.5663C6.08498 31.4798 6.1375 31.3806 6.17164 31.2738C6.20316 31.4213 6.24518 31.5689 6.30033 31.7088C6.45002 32.1057 6.69688 32.4873 7.06981 32.7086C7.52152 32.9783 8.09666 32.9757 8.61402 32.8587C9.01321 32.7671 9.41764 32.6017 9.67501 32.2939C9.72754 32.2303 9.77481 32.1565 9.80895 32.0828C9.91137 31.8665 9.93763 31.6172 9.8641 31.401C10.2134 31.9123 10.9356 32.1743 11.537 31.9683C12.2172 31.7368 12.6348 30.9481 12.4325 30.2765C12.8081 30.6734 13.4568 30.653 13.9978 30.536C14.4652 30.4368 14.9432 30.279 15.2688 29.9381C15.5472 29.6456 15.4343 29.3581 15.5735 29.0579C15.7284 28.7221 15.9175 28.9002 16.301 28.7272C16.624 28.5822 16.8735 28.2947 16.9654 27.964C17.291 26.7912 16.4139 25.9567 15.2767 25.8422Z" fill="#74C69D"/>
<path d="M10.5417 22.7131C10.476 22.7131 10.413 22.7182 10.3526 22.7335C10.4498 22.7717 10.5496 22.8047 10.652 22.8302C10.5889 22.8149 10.5259 22.8124 10.4655 22.82L10.3237 22.7411C9.89037 22.8556 9.57523 23.3186 9.58311 23.7715C9.59361 24.2955 9.93765 24.7636 10.3526 25.0969C10.6599 25.3437 11.0275 25.537 11.4267 25.5675C11.7813 25.593 12.1621 25.4658 12.3827 25.1987C12.4115 25.1936 12.4404 25.1885 12.4693 25.1859C12.598 25.8855 13.1758 26.4936 13.8901 26.6615C14.5335 26.8116 15.2505 26.5979 15.7101 26.14C16.0147 26.6793 16.624 27.0507 17.2622 27.0634C17.9765 27.0787 18.6777 26.6386 18.9587 26.0026C19.4918 26.7225 20.5292 27.0482 21.3985 26.7683C22.4726 26.4223 23.46 24.8832 22.5776 23.9241C23.2657 23.8529 23.8566 23.2576 23.8986 22.5859C23.9406 21.9169 23.4311 21.2529 22.7562 21.1028C24.6655 20.5583 22.9794 18.4112 21.6532 18.3883C21.3144 18.3832 20.9572 18.457 20.6999 18.6732C20.6132 18.7445 20.5423 18.836 20.4898 18.9353C20.4845 18.7852 20.4714 18.6325 20.4451 18.485C20.369 18.0677 20.1983 17.6505 19.8726 17.3681C19.4761 17.0247 18.9114 16.9306 18.3809 16.956C17.9712 16.9764 17.5432 17.0705 17.2333 17.33C17.1676 17.3834 17.1098 17.447 17.0626 17.5157C16.9234 17.709 16.8498 17.9507 16.884 18.1771C16.6345 17.6149 15.9701 17.2333 15.3398 17.33C14.6281 17.4394 14.0713 18.1466 14.1475 18.8411C13.8507 18.3857 13.2099 18.2967 12.6532 18.3145C12.1227 18.3349 11.6447 18.4341 11.2219 18.7495C11.1299 18.8182 10.4051 19.7163 10.8148 19.785C10.174 19.6756 9.56472 19.7163 9.26271 20.3345C8.73221 21.4335 9.44392 22.4028 10.5417 22.7131Z" fill="#74C69D"/>
<path d="M43.1145 15.5211C43.4927 15.7272 43.863 15.9485 44.2254 16.18C46.0795 17.3554 47.0827 19.215 48.367 20.9653C49.6512 22.7131 50.334 25.8957 50.9564 28.3023C51.7312 26.0585 52.5742 21.983 53.0495 19.6628C53.1125 19.3499 53.5038 17.5029 53.7901 15.8417C54.037 15.8213 54.2654 15.717 54.4151 15.5008C54.5517 15.4779 54.6856 15.4295 54.8012 15.3608C54.5359 15.5211 54.3495 17.7878 54.2943 18.1389C54.0501 19.7035 54.2917 21.4411 53.7428 22.9319C53.1624 24.5117 52.7974 26.0966 52.5059 27.7706C51.852 31.5332 51.5447 35.3544 51.5972 39.1704C50.6833 39.3002 49.7405 39.234 48.8554 38.9796C48.5823 38.9008 48.2856 38.7812 48.1674 38.5293C48.0912 38.364 48.107 38.1706 48.128 37.99C48.3171 36.1964 48.4851 34.3978 48.7924 32.6297C49.0839 30.9507 49.6643 28.661 49.1942 26.9769C48.9657 25.2571 48.128 23.835 47.3769 22.273C46.8044 21.0798 46.1189 19.9299 45.2838 18.892C45.0396 18.5892 42.6444 15.9129 42.3057 16.1673C42.5814 15.9612 42.8519 15.7475 43.1145 15.5211Z" fill="#825E3A"/>
<path d="M37.5259 17.7039L37.1399 17.7878C37.266 17.7497 37.3946 17.7242 37.5259 17.7039Z" fill="#844683"/>
<path d="M37.7125 17.6863C37.6494 17.6914 37.589 17.6966 37.526 17.7069L37.6888 17.6708C37.6941 17.6734 37.702 17.6811 37.7125 17.6863Z" fill="#844683"/>
<path d="M38.3243 17.5386C38.2692 17.5233 38.2193 17.5004 38.172 17.4724C38.2639 17.4648 38.3558 17.4623 38.4478 17.4673C38.39 17.4648 38.3401 17.4495 38.2902 17.4292L38.151 17.4597C37.8227 17.2536 37.6862 16.7881 37.8175 16.4141C37.9698 15.9816 38.3821 15.6814 38.8207 15.511C39.1437 15.3863 39.5035 15.3176 39.8397 15.3965C40.1417 15.4652 40.4227 15.6713 40.533 15.9486C40.5566 15.9613 40.5776 15.9715 40.6013 15.9816C40.898 15.4321 41.5467 15.076 42.1875 15.1217C42.7626 15.1625 43.2984 15.5237 43.5558 16.0223C43.9549 15.6535 44.5642 15.5008 45.0973 15.6535C45.6935 15.8239 46.1583 16.3709 46.2161 16.9713C46.8569 16.5108 47.8076 16.5057 48.451 16.9611C49.2494 17.5259 49.6486 19.0574 48.6532 19.6272C49.2047 19.8613 49.533 20.51 49.3859 21.0773C49.2389 21.6446 48.6322 22.0644 48.0308 22.0161C49.4674 22.9574 47.4793 24.3082 46.371 23.9877C46.0874 23.9063 45.8143 23.7511 45.6593 23.5069C45.6068 23.4255 45.5727 23.3313 45.5569 23.2372C45.5123 23.3619 45.4598 23.484 45.3967 23.601C45.2208 23.9266 44.9634 24.2294 44.6167 24.3795C44.1939 24.5626 43.6976 24.4965 43.2642 24.3388C42.9281 24.2167 42.5998 24.0284 42.4133 23.7333C42.374 23.6722 42.3451 23.6035 42.3214 23.5349C42.2584 23.3364 42.2637 23.1176 42.3556 22.9396C41.9958 23.3441 41.3392 23.4891 40.8429 23.2474C40.2809 22.9726 40.013 22.245 40.2677 21.6879C39.8974 21.9906 39.3381 21.899 38.8837 21.7413C38.4924 21.6039 38.0959 21.4157 37.8542 21.085C37.6468 20.8026 37.7781 20.566 37.694 20.2912C37.5995 19.9834 37.4157 20.1182 37.1031 19.9249C36.8405 19.7646 36.6593 19.4898 36.6199 19.1922C36.4729 18.1364 37.329 17.5131 38.3243 17.5386Z" fill="#1B4332"/>
<path d="M42.3687 22.3849C42.3136 22.3696 42.2637 22.3467 42.2164 22.3187C42.3083 22.3111 42.4002 22.3086 42.4921 22.3137C42.4344 22.3111 42.3845 22.2959 42.3346 22.2755L42.1954 22.306C41.8671 22.1 41.7305 21.6344 41.8619 21.2604C42.0142 20.8279 42.4265 20.5277 42.8651 20.3573C43.1881 20.2326 43.5479 20.164 43.884 20.2428C44.1861 20.3115 44.4671 20.5176 44.5774 20.7949C44.601 20.8076 44.622 20.8178 44.6456 20.8279C44.9424 20.2784 45.5911 19.9223 46.2319 19.9681C46.807 20.0088 47.3428 20.37 47.6001 20.8687C47.9993 20.4998 48.6086 20.3471 49.1417 20.4998C49.7379 20.6702 50.2027 21.2172 50.2605 21.8176C50.9013 21.3571 51.852 21.352 52.4954 21.8074C53.2938 22.3722 53.693 23.9037 52.6976 24.4735C53.2491 24.7076 53.5774 25.3563 53.4303 25.9236C53.2833 26.491 52.6766 26.9107 52.0752 26.8624C53.5117 27.8037 51.5237 29.1546 50.4154 28.834C50.1318 28.7526 49.8587 28.5974 49.7037 28.3532C49.6512 28.2718 49.6171 28.1777 49.6013 28.0835C49.5567 28.2082 49.5041 28.3303 49.4411 28.4473C49.2651 28.773 49.0078 29.0757 48.6611 29.2258C48.2383 29.409 47.7419 29.3428 47.3086 29.1851C46.9725 29.063 46.6442 28.8747 46.4577 28.5796C46.4183 28.5186 46.3894 28.4499 46.3658 28.3812C46.3028 28.1827 46.308 27.964 46.4 27.7859C46.0402 28.1904 45.3836 28.3354 44.8873 28.0937C44.3252 27.8189 44.0574 27.0914 44.3121 26.5342C43.9418 26.8369 43.3824 26.7454 42.9281 26.5876C42.5368 26.4503 42.1402 26.262 41.8986 25.9313C41.6911 25.6489 41.8225 25.4123 41.7384 25.1375C41.6439 24.8297 41.46 24.9645 41.1475 24.7712C40.8849 24.6109 40.7037 24.3362 40.6643 24.0385C40.5146 22.9827 41.3707 22.3595 42.3687 22.3849Z" fill="#1B4332"/>
<path d="M48.887 16.4191C48.8318 16.4039 48.7819 16.381 48.7346 16.353C48.8265 16.3454 48.9185 16.3428 49.0104 16.3479C48.9526 16.3454 48.9027 16.3301 48.8528 16.3097L48.7136 16.3403C48.3853 16.1342 48.2488 15.6686 48.3801 15.2947C48.5324 14.8622 48.9447 14.562 49.3833 14.3915C49.7063 14.2669 50.0661 14.1982 50.4023 14.2771C50.7043 14.3457 50.9853 14.5518 51.0956 14.8291C51.1192 14.8418 51.1402 14.852 51.1639 14.8622C51.4606 14.3127 52.1093 13.9565 52.7501 14.0023C53.3253 14.043 53.861 14.4043 54.1184 14.9029C54.5176 14.534 55.1268 14.3814 55.66 14.534C56.2561 14.7045 56.7209 15.2514 56.7787 15.8518C57.4195 15.3913 58.3702 15.3863 59.0136 15.8416C59.812 16.4064 60.2112 17.9379 59.2159 18.5078C59.7674 18.7418 60.0956 19.3906 59.9486 19.9579C59.8015 20.5252 59.1948 20.945 58.5934 20.8966C60.03 21.8379 58.0419 23.1888 56.9337 22.8683C56.65 22.7868 56.3769 22.6317 56.222 22.3874C56.1694 22.306 56.1353 22.2119 56.1196 22.1178C56.0749 22.2424 56.0224 22.3645 55.9593 22.4816C55.7834 22.8072 55.526 23.1099 55.1794 23.26C54.7565 23.4432 54.2602 23.3771 53.8269 23.2193C53.4907 23.0972 53.1624 22.909 52.976 22.6138C52.9366 22.5528 52.9077 22.4841 52.8841 22.4154C52.821 22.217 52.8263 21.9982 52.9182 21.8201C52.5584 22.2246 51.9018 22.3696 51.4055 22.1279C50.8435 21.8532 50.5756 21.1256 50.8304 20.5684C50.4601 20.8712 49.9007 20.7796 49.4463 20.6219C49.055 20.4845 48.6585 20.2962 48.4169 19.9655C48.2094 19.6831 48.3407 19.4465 48.2567 19.1718C48.1621 18.8639 47.9783 18.9988 47.6658 18.8054C47.4031 18.6452 47.2219 18.3704 47.1825 18.0728C47.0355 17.017 47.8916 16.3937 48.887 16.4191Z" fill="#1B4332"/>
<path d="M53.3489 14.2339C53.4067 14.2389 53.4592 14.2542 53.5118 14.272C53.4225 14.2949 53.3332 14.3127 53.2413 14.3229C53.2964 14.3153 53.3516 14.3203 53.4041 14.3331L53.5354 14.2796C53.8952 14.4247 54.1158 14.8622 54.0554 15.2515C53.9845 15.7018 53.6326 16.0706 53.2334 16.3123C52.9393 16.4904 52.5979 16.6202 52.2512 16.5998C51.9413 16.5845 51.6288 16.4294 51.4686 16.1775C51.4449 16.1699 51.4187 16.1622 51.395 16.1571C51.2033 16.7474 50.6308 17.2104 49.9926 17.2765C49.4175 17.3376 48.824 17.073 48.4799 16.6252C48.1543 17.0577 47.5818 17.3121 47.0303 17.2536C46.4105 17.1875 45.8564 16.7295 45.6883 16.1495C45.142 16.7143 44.2071 16.8796 43.4901 16.5438C42.6025 16.1266 41.9275 14.6867 42.8021 13.9566C42.2138 13.8192 41.7752 13.2391 41.8172 12.6566C41.8593 12.074 42.3792 11.5575 42.9806 11.5016C41.3944 10.8198 43.1041 9.15088 44.2544 9.27554C44.5485 9.30861 44.8479 9.41292 45.0449 9.62661C45.1105 9.69785 45.1604 9.78434 45.1946 9.87593C45.2156 9.74618 45.2471 9.61644 45.2865 9.49178C45.402 9.1407 45.599 8.79726 45.9115 8.59119C46.2949 8.33933 46.7939 8.31898 47.2509 8.39785C47.6028 8.46145 47.96 8.58865 48.1989 8.84814C48.2488 8.90156 48.2909 8.96262 48.325 9.02877C48.4222 9.21194 48.4563 9.42818 48.4012 9.61898C48.6822 9.16105 49.3019 8.90411 49.8351 9.05675C50.4391 9.22974 50.8357 9.90137 50.6886 10.4941C50.9985 10.1329 51.5631 10.1252 52.0411 10.2041C52.4981 10.2779 52.8999 10.4178 53.2281 10.7384C53.2991 10.8096 53.8217 11.6644 53.4593 11.6796C54.0265 11.6567 54.5491 11.7585 54.7356 12.3258C55.0612 13.3256 54.3338 14.0863 53.3489 14.2339Z" fill="#1B4332"/>
<path d="M45.9483 24.9264C46.3738 25.1783 46.7861 25.4479 47.1931 25.7252C49.126 27.0507 50.6466 29.2563 51.7076 31.2636C52.2696 32.3295 52.8316 33.3955 53.3963 34.4589C53.7272 35.0822 54.0581 35.7105 54.4783 36.2829C55.2189 34.3393 56.1459 32.4974 56.9968 30.6021C57.2463 30.0475 57.958 25.7303 58.1707 25.7201C58.4544 25.7074 58.7222 25.598 58.9008 25.3563C59.0584 25.336 59.2133 25.2876 59.3499 25.2113C59.04 25.3843 58.7275 27.9741 58.6487 28.3761C58.2784 30.2714 58.3362 32.2252 57.9317 34.1129C57.5562 35.8657 57.0231 37.5779 56.6974 39.346C56.5267 40.2771 55.3186 50.6491 55.8833 50.6593C54.9116 50.644 53.9373 50.6262 52.9656 50.6109C53.1389 47.9041 53.2229 45.1921 53.2151 42.4777C53.2098 40.7859 53.1652 39.0483 52.6268 37.4252C52.1068 35.8632 51.2113 34.3597 50.5468 32.8383C49.9402 31.4467 49.2048 30.1035 48.2909 28.8773C48.023 28.5186 45.3942 25.3563 44.995 25.6336C45.318 25.4098 45.6384 25.1732 45.9483 24.9264Z" fill="#926942"/>
<path d="M39.4483 27.2033L39.0045 27.2847C39.149 27.244 39.2987 27.2186 39.4483 27.2033Z" fill="#844683"/>
<path d="M39.6637 27.1884C39.5928 27.191 39.5193 27.1961 39.4484 27.2039L39.6348 27.1703C39.6453 27.1755 39.6532 27.1832 39.6637 27.1884Z" fill="#844683"/>
<path d="M40.4778 27.0711C40.4148 27.0507 40.3597 27.0227 40.3071 26.9897C40.4122 26.9871 40.5172 26.9871 40.6223 26.9973C40.5566 26.9922 40.4988 26.9719 40.4437 26.9464L40.2835 26.9744C39.9158 26.7251 39.7793 26.1858 39.9447 25.7634C40.1364 25.275 40.6249 24.9443 41.1318 24.7687C41.5073 24.639 41.9223 24.5754 42.3057 24.6772C42.6497 24.7687 42.9596 25.0155 43.0752 25.3361C43.1014 25.3513 43.1277 25.364 43.154 25.3768C43.519 24.7586 44.2754 24.377 45.0081 24.4533C45.6672 24.522 46.266 24.9595 46.5391 25.5396C47.0145 25.1325 47.7183 24.9824 48.3223 25.1783C48.9999 25.3997 49.5068 26.0433 49.5488 26.7327C50.3025 26.2316 51.3924 26.2646 52.112 26.8116C53.0023 27.4908 53.3936 29.2615 52.2302 29.8746C52.8526 30.1672 53.1992 30.9227 53.0075 31.5664C52.8132 32.21 52.1015 32.6654 51.4134 32.5865C53.0206 33.7237 50.6833 35.1916 49.4254 34.7795C49.1023 34.6752 48.7951 34.4869 48.6296 34.1995C48.5745 34.1028 48.5403 33.9959 48.5246 33.884C48.4668 34.0239 48.4011 34.1613 48.325 34.2936C48.107 34.6599 47.8024 34.9957 47.3953 35.156C46.9042 35.3494 46.3369 35.2527 45.8484 35.0543C45.4703 34.9016 45.1 34.6726 44.9004 34.3267C44.8584 34.2554 44.8269 34.1766 44.8032 34.0952C44.7402 33.8662 44.7559 33.6169 44.8662 33.4159C44.4355 33.8636 43.6766 34.0061 43.1172 33.7059C42.4843 33.3676 42.2085 32.5229 42.5237 31.8946C42.0851 32.2278 41.4495 32.1006 40.9348 31.8997C40.491 31.7267 40.0471 31.4926 39.7845 31.1059C39.5587 30.7726 39.7215 30.5081 39.6348 30.1875C39.5403 29.8314 39.3223 29.9764 38.973 29.7449C38.6815 29.5515 38.4819 29.2284 38.4504 28.885C38.3296 27.6817 39.3381 27.0024 40.4778 27.0711Z" fill="#74C69D"/>
<path d="M52.5269 26.1856C52.4639 26.1653 52.4087 26.1373 52.3562 26.1042C52.4613 26.1017 52.5663 26.1017 52.6714 26.1119C52.6057 26.1068 52.5479 26.0864 52.4928 26.061L52.3326 26.089C51.9649 25.8397 51.8283 25.3003 51.9938 24.878C52.1855 24.3896 52.674 24.0588 53.1808 23.8833C53.5564 23.7536 53.9713 23.6899 54.3548 23.7917C54.6988 23.8833 55.0087 24.1301 55.1242 24.4506C55.1505 24.4659 55.1768 24.4786 55.203 24.4913C55.5681 23.8731 56.3244 23.4915 57.0571 23.5678C57.7163 23.6365 58.3151 24.0741 58.5882 24.6541C59.0636 24.2471 59.7674 24.097 60.3714 24.2929C61.049 24.5142 61.5558 25.1579 61.5979 25.8473C62.3516 25.3461 63.4415 25.3792 64.1611 25.9262C65.0513 26.6054 65.4426 28.3761 64.2792 28.9892C64.9016 29.2817 65.2483 30.0373 65.0566 30.6809C64.8623 31.3246 64.1505 31.78 63.4625 31.7011C65.0697 32.8383 62.7324 34.3062 61.4744 33.8941C61.1514 33.7898 60.8441 33.6015 60.6787 33.314C60.6235 33.2173 60.5894 33.1105 60.5736 32.9986C60.5159 33.1385 60.4502 33.2759 60.374 33.4082C60.1561 33.7745 59.8514 34.1103 59.4444 34.2706C58.9533 34.4639 58.386 34.3673 57.8975 34.1688C57.5194 34.0162 57.1491 33.7872 56.9495 33.4412C56.9074 33.37 56.8759 33.2911 56.8523 33.2097C56.7893 32.9808 56.805 32.7314 56.9153 32.5305C56.4846 32.9782 55.7256 33.1207 55.1663 32.8205C54.5333 32.4821 54.2576 31.6375 54.5727 31.0091C54.1342 31.3424 53.4986 31.2152 52.9839 31.0142C52.54 30.8412 52.0962 30.6072 51.8336 30.2205C51.6077 29.8872 51.7706 29.6226 51.6839 29.3021C51.5894 28.9459 51.3714 29.0909 51.0221 28.8594C50.7306 28.6661 50.531 28.343 50.4995 27.9995C50.3787 26.7962 51.3871 26.117 52.5269 26.1856Z" fill="#74C69D"/>
<path d="M57.7347 23.8604C57.8004 23.8706 57.8608 23.8859 57.9185 23.9113C57.8161 23.9342 57.7111 23.9495 57.606 23.9597C57.6717 23.9546 57.7321 23.9622 57.7899 23.98L57.9422 23.924C58.3492 24.1072 58.583 24.616 58.4963 25.0587C58.3965 25.5726 57.9763 25.9796 57.5089 26.2417C57.1622 26.435 56.7683 26.5673 56.3691 26.5317C56.0145 26.5012 55.6626 26.3129 55.4893 26.0152C55.4604 26.0051 55.4341 25.9974 55.4053 25.9898C55.1584 26.6589 54.4835 27.1651 53.7507 27.216C53.0889 27.2618 52.4219 26.9336 52.0463 26.4096C51.655 26.8929 50.988 27.1626 50.3577 27.071C49.6512 26.9693 49.0341 26.4248 48.866 25.7507C48.2173 26.3739 47.1379 26.5291 46.3291 26.1119C45.3285 25.598 44.6194 23.9215 45.6515 23.1176C44.9844 22.937 44.5038 22.2526 44.5774 21.5861C44.6509 20.9195 45.2681 20.3471 45.9588 20.309C44.1703 19.4644 46.2004 17.6199 47.5135 17.8082C47.8496 17.8565 48.1858 17.9888 48.4038 18.2407C48.4773 18.3246 48.5298 18.4264 48.564 18.5332C48.5955 18.3857 48.6349 18.2381 48.6874 18.0957C48.8345 17.6963 49.0735 17.3147 49.4438 17.0882C49.8928 16.8135 50.468 16.8109 50.9853 16.9203C51.3871 17.0068 51.7916 17.1671 52.0516 17.4749C52.1067 17.5385 52.1514 17.6098 52.1881 17.6861C52.2932 17.8998 52.3221 18.1491 52.2512 18.3653C52.5926 17.8514 53.3122 17.5818 53.9188 17.7802C54.6016 18.0041 55.0297 18.7877 54.8354 19.4618C55.2057 19.0599 55.8543 19.0751 56.398 19.1845C56.918 19.2888 57.3723 19.4644 57.7347 19.8434C57.8135 19.9274 58.3755 20.9272 57.9579 20.9297C58.6092 20.9272 59.2028 21.0646 59.3945 21.7209C59.7359 22.8912 58.8692 23.7332 57.7347 23.8604Z" fill="#74C69D"/>
</svg>
