<svg id="Capa_1" enable-background="new 0 0 445.691 445.691" height="512" viewBox="0 0 445.691 445.691" width="512" xmlns="http://www.w3.org/2000/svg"><g><g><path d="m295.781 259.937v34.921h-276.524c-3.774.004-6.839-3.052-6.843-6.826 0-.119.003-.239.009-.358v-27.937z" fill="#2f4859"/><path d="m11.424 113.667h272.982c6.29.028 11.374 5.134 11.374 11.424v54.328h17.111v86.854h-301.467c-6.29 0-11.397-5.084-11.424-11.374v-129.707c-.028-6.338 5.087-11.497 11.424-11.525z" fill="#fcd462"/><path d="m362.928 307.179 67.448-12.472v-37.764h-78.971z" fill="#2f4859"/><path d="m295.731 179.419v117.684c0 5.51 4.467 9.977 9.977 9.977h57.071c-.386-8.777 1.163-17.531 4.539-25.642l.599-1.347c3.448-7.497 9.465-13.513 16.961-16.961l1.247-.549c2.457-.957 4.994-1.693 7.583-2.195 0 0 20.953-8.281 36.667 17.91l8.68.449-2.693-29.234c-.455-5.091-4.041-9.356-8.98-10.676l-37.415-9.23c-3.519-.833-6.482-3.193-8.081-6.435l-18.458-36.967c-2.113-4.149-6.369-6.768-11.026-6.785.002.001-56.671.001-56.671.001z" fill="#e56353"/><path d="m317.631 193.437h34.921c1.539.043 2.864 1.101 3.242 2.593l7.384 30.182c.441 1.793-.655 3.604-2.448 4.044-.26.065-.527.097-.794.097h-42.305c-1.846 0-3.342-1.496-3.342-3.342v-29.933c-.166-1.839 1.191-3.463 3.03-3.629.103-.008.207-.012.312-.012z" fill="#ebf0f3"/><path d="m398.947 269.065c17.386-.028 31.501 14.043 31.529 31.429s-14.043 31.501-31.429 31.529-31.501-14.043-31.529-31.429c0-.034 0-.066 0-.1 0-17.357 14.071-31.429 31.429-31.429z" fill="#3a556a"/><path d="m398.947 284.381c8.927-.028 16.186 7.187 16.214 16.114s-7.187 16.186-16.114 16.214-16.186-7.187-16.214-16.114c0-.034 0-.066 0-.1.001-8.9 7.214-16.114 16.114-16.114z" fill="#ebf0f3"/><path d="m122.672 269.065c17.386 0 31.479 14.093 31.479 31.479s-14.093 31.479-31.479 31.479-31.479-14.093-31.479-31.479c0-.016 0-.034 0-.05 0-17.358 14.071-31.429 31.429-31.429z" fill="#3a556a"/><path d="m122.672 284.381c8.927-.028 16.186 7.187 16.214 16.114s-7.187 16.186-16.114 16.214-16.186-7.187-16.214-16.114c0-.034 0-.066 0-.1 0-8.9 7.215-16.114 16.114-16.114z" fill="#ebf0f3"/><path d="m439.953 273.257 4.989 4.989c.468.502.734 1.16.749 1.846v13.519c-.026 1.422-1.172 2.567-2.593 2.593h-12.722c-1.272-.009-2.348-.938-2.545-2.195l-.847-18.558c-.248-1.411.695-2.756 2.106-3.005.145-.025.291-.038.438-.04h8.581c.706.011 1.377.319 1.844.851z" fill="#64798a"/><path d="m199.499 276.749h71.389c3.334 0 6.037 2.702 6.037 6.037v18.358c0 3.334-2.702 6.037-6.037 6.037h-71.389c-3.334 0-6.036-2.702-6.036-6.037v-18.358c-.001-3.335 2.701-6.037 6.036-6.037z" fill="#e1e6e9"/><path d="m313.491 246.716h5.038c1.075 0 1.946.871 1.946 1.946v15.665c0 1.075-.871 1.946-1.946 1.946h-5.038c-1.075 0-1.946-.871-1.946-1.946v-15.665c0-1.075.871-1.946 1.946-1.946z" fill="#3a556a"/><path d="m164.029 156.82c-10.616 5.87-18.154 16.067-20.653 27.937-.955 4.598-1.072 9.329-.35 13.969.742 3.414 1.795 6.754 3.143 9.977 2.245 5.688 3.442 9.977 3.442 9.977 3.097 2.783 6.987 4.527 11.125 4.989 3.72.286 7.456-.276 10.926-1.646 3.292-1.347 5.737-2.295 7.733-3.292 2.022-1.084 3.871-2.463 5.488-4.091 3.445-3.654 6.29-7.83 8.431-12.372 2.558-5.103 4.598-10.451 6.086-15.964 1.912-7.415 4.605-14.604 8.031-21.452 2.495-4.989 4.091-7.633 4.091-7.633-14.715-8.274-32.642-8.423-47.493-.399z" fill="#65b54e"/><path d="m194.211 163.654c1.623-.664 3.289-1.213 4.989-1.646-14.077 1.919-26.927 9.037-36.018 19.954 1.159-3.997 1.53-8.183 1.097-12.322-.132-1.444-.537-2.849-1.197-4.141.153 6.447-.535 12.888-2.046 19.157-5.596 7.533-9.324 16.287-10.876 25.542-.517 3.476-1.285 6.911-2.295 10.277-.871 2.618-2.132 5.091-3.742 7.334-1.266 1.489-1.087 3.721.399 4.989 2.658 1.511 6.039.582 7.551-2.076.201-.354.363-.727.482-1.116 3.143-9.977 1.596-18.358 3.542-25.342 5.119-5.235 11.958-8.442 19.257-9.03 3.516-.382 7.069-.197 10.526.549-5.699-2.191-11.863-2.894-17.91-2.046-3.629.489-7.068 1.916-9.977 4.141 3.707-8.788 9.494-16.543 16.861-22.599 3.479-1.526 7.331-1.994 11.076-1.347 1.513.251 2.966.775 4.291 1.546-3.502-2.439-7.795-3.472-12.023-2.893 1.397-.997 2.793-1.996 4.141-2.793 3.757-2.412 7.731-4.467 11.872-6.138z" fill="#5fa348"/><path d="m190.369 175.279.897.599z" fill="#3c6b34"/><path d="m148.514 177.922s9.727-26.291 42.753-24.045c-17.706-.949-34.367 8.422-42.753 24.045z" fill="#ebf0f3"/><path d="m114.042 192.44c8.078.106 15.701 3.754 20.853 9.977 2.007 2.375 3.563 5.097 4.589 8.031.633 2.256 1.084 4.557 1.347 6.884.449 4.041 1.097 6.984 1.097 6.984-.988 2.552-2.729 4.743-4.989 6.285-2.093 1.338-4.466 2.175-6.934 2.445-2.345 0-4.091.499-5.538.499-1.521.013-3.035-.206-4.489-.649-3.175-1.037-6.157-2.588-8.83-4.589-3.099-2.188-5.974-4.677-8.581-7.434-3.423-3.743-7.254-7.09-11.424-9.977-3.043-2.146-4.989-3.242-4.989-3.242 6.039-9.553 16.586-15.307 27.888-15.214z" fill="#65b54e"/><path d="m98.527 205.909c-1.123.117-2.239.301-3.342.549 8.883-3.289 18.679-3.112 27.438.499-1.933-1.988-3.473-4.325-4.539-6.884-.372-.903-.574-1.866-.599-2.843 1.927 3.849 4.36 7.422 7.234 10.626 5.635 2.648 10.56 6.598 14.368 11.523 1.392 1.878 2.925 3.646 4.589 5.288 1.275 1.267 2.739 2.328 4.339 3.143 1.169.485 1.743 1.809 1.297 2.993-1.084 1.727-3.363 2.248-5.09 1.165-.235-.147-.452-.32-.648-.517-4.989-4.739-6.685-10.277-9.977-13.719-4.639-1.482-9.661-1.216-14.118.749-2.169.883-4.188 2.094-5.987 3.592 2.704-3.052 6.137-5.369 9.977-6.735 2.217-.805 4.596-1.062 6.934-.749-4.937-3.965-10.754-6.685-16.961-7.931-2.526.195-4.939 1.132-6.934 2.693-.802.615-1.479 1.377-1.996 2.245 1.261-2.541 3.463-4.491 6.135-5.438-1.147 0-2.245-.3-3.342-.399-2.923-.23-5.863-.18-8.778.15z" fill="#5fa348"/><path d="m104.414 211.497-.35.649z" fill="#3c6b34"/><path d="m129.756 199.972c-9.517-7.403-22.771-7.667-32.576-.649 10.063-6.128 22.765-5.876 32.576.649z" fill="#ebf0f3"/></g></g></svg>